HIERARCHY
ROOT teapot3
{
	OFFSET 0.000000 0.000000 0.000000
	CHANNELS 6 Xposition Yposition Zposition Yrotation Xrotation Zrotation
	End Site
	{
		OFFSET 0.000000 0.000000 0.000000
	}
}
MOTION
Frames: 87
Frame Time: 0.008333334
2.370030 4.783898 2.859781 1.811207 -21.865780 -9.518219 
2.372815 4.780682 2.857534 1.949282 -22.163390 -9.679688 
2.375600 4.777464 2.855288 2.088561 -22.460630 -9.842255 
2.378485 4.774212 2.854029 2.186991 -22.693360 -10.119260 
2.381781 4.771051 2.852803 2.309899 -22.908360 -10.282380 
2.385001 4.767502 2.851696 2.449546 -23.143220 -10.514040 
2.388458 4.764321 2.850223 2.589169 -23.393400 -10.691590 
2.391567 4.760668 2.848494 2.733711 -23.628170 -10.952000 
2.394793 4.757156 2.847252 2.875792 -23.894900 -11.184200 
2.397853 4.754467 2.845561 3.036671 -24.121060 -11.363710 
2.400645 4.751707 2.844138 3.169295 -24.292910 -11.548130 
2.403219 4.749528 2.843530 3.239508 -24.454010 -11.624940 
2.405381 4.748137 2.843251 3.330121 -24.526460 -11.739960 
2.407140 4.746933 2.843525 3.413343 -24.592190 -11.809140 
2.408525 4.746274 2.844406 3.453604 -24.603940 -11.836120 
2.409600 4.746254 2.845434 3.475047 -24.625340 -11.849150 
2.410394 4.746800 2.846620 3.483196 -24.621120 -11.838780 
2.410857 4.748072 2.848212 3.482726 -24.579650 -11.841340 
2.410887 4.750339 2.850108 3.439422 -24.522340 -11.758610 
2.410614 4.753310 2.852313 3.399684 -24.372250 -11.661290 
2.410021 4.757123 2.854801 3.337195 -24.215330 -11.515870 
2.409110 4.761240 2.857416 3.247117 -24.062590 -11.346250 
2.408507 4.765464 2.860489 3.202717 -23.899440 -11.196380 
2.407937 4.770005 2.863153 3.158910 -23.734280 -11.071930 
2.407568 4.774821 2.866511 3.055849 -23.562620 -10.967650 
2.407178 4.779940 2.869922 2.990099 -23.342560 -10.873900 
2.406845 4.785048 2.873384 2.945678 -23.176060 -10.789920 
2.406407 4.790636 2.876642 2.919725 -22.943540 -10.690980 
2.406058 4.796739 2.879968 2.894522 -22.664180 -10.591550 
2.405263 4.802709 2.883760 2.816133 -22.403930 -10.490720 
2.404670 4.809927 2.887680 2.809205 -22.128360 -10.336090 
2.403985 4.817928 2.892350 2.767862 -21.765900 -10.254670 
2.403378 4.826943 2.898080 2.676667 -21.339900 -10.113560 
2.402927 4.837409 2.904455 2.607569 -20.790990 -9.961578 
2.402467 4.848645 2.912469 2.537566 -20.202820 -9.827087 
2.401283 4.860443 2.921405 2.452922 -19.608730 -9.652893 
2.399823 4.872585 2.930217 2.390204 -18.957460 -9.417114 
2.397953 4.885300 2.939249 2.310132 -18.327090 -9.249115 
2.396513 4.898636 2.948392 2.259822 -17.704680 -9.039825 
2.394132 4.912641 2.957408 2.205820 -17.083190 -8.853271 
2.392048 4.927622 2.966093 2.176851 -16.379120 -8.638275 
2.389366 4.942846 2.975576 2.161218 -15.694460 -8.428772 
2.386808 4.958933 2.985534 2.073220 -14.942410 -8.121521 
2.384017 4.975982 2.995650 2.016972 -14.116790 -7.856354 
2.381660 4.993457 3.007319 1.936905 -13.293300 -7.573914 
2.378233 5.011631 3.018995 1.873280 -12.378450 -7.326172 
2.374493 5.029597 3.030921 1.762013 -11.555820 -7.034210 
2.370081 5.047610 3.042561 1.690202 -10.732600 -6.674194 
2.364594 5.065677 3.054023 1.564280 -9.894562 -6.326538 
2.358927 5.084296 3.064948 1.453655 -9.158325 -5.906555 
2.352550 5.102298 3.075139 1.419105 -8.328369 -5.388916 
2.344649 5.121243 3.084691 1.322427 -7.634735 -4.898529 
2.336647 5.140144 3.094664 1.239090 -6.917755 -4.374878 
2.328585 5.159044 3.104130 1.198236 -6.107208 -3.760925 
2.319865 5.178014 3.113803 1.174620 -5.361267 -3.200500 
2.311593 5.197216 3.123360 1.168414 -4.688873 -2.620148 
2.303447 5.215461 3.132652 1.171831 -3.834290 -1.985840 
2.294871 5.233451 3.141665 1.191111 -3.189087 -1.410919 
2.286770 5.251299 3.150314 1.214925 -2.468781 -0.853607 
2.278599 5.268959 3.159070 1.323087 -1.805176 -0.327210 
2.270781 5.286020 3.167247 1.371145 -1.198914 0.287298 
2.262894 5.302732 3.175920 1.443332 -0.513733 0.783975 
2.254512 5.319696 3.184182 1.568714 0.037081 1.335869 
2.246332 5.335901 3.192422 1.659678 0.711575 1.886280 
2.237966 5.351905 3.200437 1.791103 1.335177 2.433889 
2.229713 5.368491 3.208223 1.869861 1.828611 2.977386 
2.221319 5.384687 3.215927 2.023246 2.493544 3.588631 
2.213329 5.401279 3.223872 2.170006 3.065320 4.136026 
2.204952 5.418502 3.231697 2.290916 3.650172 4.680081 
2.196840 5.435388 3.239896 2.436728 4.234901 5.284597 
2.188614 5.452620 3.248474 2.539393 4.881859 5.821786 
2.181062 5.470116 3.256518 2.732985 5.439877 6.324693 
2.173602 5.487133 3.264741 2.811443 6.046159 6.839418 
2.166984 5.504664 3.271996 2.986014 6.510468 7.249529 
2.160828 5.522229 3.279145 3.101626 7.056756 7.689774 
2.155351 5.539947 3.284973 3.210032 7.581143 8.046498 
2.149388 5.557764 3.291106 3.282202 8.025422 8.406398 
2.143909 5.575340 3.296947 3.400488 8.485174 8.798159 
2.139006 5.593535 3.302378 3.466938 8.896351 9.147764 
2.134186 5.611605 3.307904 3.539444 9.363452 9.484872 
2.129778 5.629421 3.313038 3.597709 9.767265 9.806989 
2.124710 5.647303 3.317627 3.654241 10.268320 10.145430 
2.121244 5.664630 3.322013 3.727295 10.634530 10.439030 
2.117775 5.681931 3.325232 3.823989 10.930340 10.740150 
2.114243 5.699037 3.327786 3.870347 11.243130 10.902490 
2.111912 5.715721 3.329697 3.892609 11.444650 11.061720 
2.110027 5.732409 3.330684 3.942667 11.601470 11.234890 
